<mxfile host="app.diagrams.net" agent="Mozilla/5.0 (X11; Ubuntu; Linux x86_64; rv:136.0) Gecko/20100101 Firefox/136.0" version="26.1.1">
  <diagram name="Page-1" id="_6dtYqw5W0z12z0-h3TO">
    <mxGraphModel dx="880" dy="483" grid="1" gridSize="10" guides="1" tooltips="1" connect="1" arrows="1" fold="1" page="1" pageScale="1" pageWidth="850" pageHeight="1100" math="0" shadow="0">
      <root>
        <mxCell id="0" />
        <mxCell id="1" parent="0" />
        <mxCell id="_MjAgq_VViFwdaSgHVct-1" value="Generic Pipeline" style="rounded=1;whiteSpace=wrap;html=1;" vertex="1" parent="1">
          <mxGeometry x="80" y="120" width="720" height="40" as="geometry" />
        </mxCell>
        <mxCell id="_MjAgq_VViFwdaSgHVct-2" value="context: irs" style="rounded=1;whiteSpace=wrap;html=1;" vertex="1" parent="1">
          <mxGeometry x="80" y="200" width="720" height="40" as="geometry" />
        </mxCell>
        <mxCell id="_MjAgq_VViFwdaSgHVct-17" value="" style="edgeStyle=orthogonalEdgeStyle;rounded=0;orthogonalLoop=1;jettySize=auto;html=1;" edge="1" parent="1" source="_MjAgq_VViFwdaSgHVct-3" target="_MjAgq_VViFwdaSgHVct-4">
          <mxGeometry relative="1" as="geometry" />
        </mxCell>
        <mxCell id="_MjAgq_VViFwdaSgHVct-3" value="&lt;div&gt;collection&lt;/div&gt;&lt;div&gt;(requests)&lt;/div&gt;" style="rounded=1;whiteSpace=wrap;html=1;" vertex="1" parent="1">
          <mxGeometry x="80" y="280" width="120" height="40" as="geometry" />
        </mxCell>
        <mxCell id="_MjAgq_VViFwdaSgHVct-16" value="" style="edgeStyle=orthogonalEdgeStyle;rounded=0;orthogonalLoop=1;jettySize=auto;html=1;" edge="1" parent="1" source="_MjAgq_VViFwdaSgHVct-4" target="_MjAgq_VViFwdaSgHVct-5">
          <mxGeometry relative="1" as="geometry" />
        </mxCell>
        <mxCell id="_MjAgq_VViFwdaSgHVct-4" value="&lt;div&gt;cleanup&lt;/div&gt;&lt;div&gt;(beautifulsoup)&lt;/div&gt;" style="rounded=1;whiteSpace=wrap;html=1;" vertex="1" parent="1">
          <mxGeometry x="280" y="280" width="120" height="40" as="geometry" />
        </mxCell>
        <mxCell id="_MjAgq_VViFwdaSgHVct-7" value="" style="edgeStyle=orthogonalEdgeStyle;rounded=0;orthogonalLoop=1;jettySize=auto;html=1;" edge="1" parent="1" source="_MjAgq_VViFwdaSgHVct-5" target="_MjAgq_VViFwdaSgHVct-6">
          <mxGeometry relative="1" as="geometry" />
        </mxCell>
        <mxCell id="_MjAgq_VViFwdaSgHVct-5" value="extraction" style="rounded=1;whiteSpace=wrap;html=1;" vertex="1" parent="1">
          <mxGeometry x="480" y="280" width="120" height="40" as="geometry" />
        </mxCell>
        <mxCell id="_MjAgq_VViFwdaSgHVct-9" value="" style="edgeStyle=orthogonalEdgeStyle;rounded=0;orthogonalLoop=1;jettySize=auto;html=1;" edge="1" parent="1" source="_MjAgq_VViFwdaSgHVct-6" target="_MjAgq_VViFwdaSgHVct-8">
          <mxGeometry relative="1" as="geometry" />
        </mxCell>
        <mxCell id="_MjAgq_VViFwdaSgHVct-6" value="parsing" style="rounded=1;whiteSpace=wrap;html=1;" vertex="1" parent="1">
          <mxGeometry x="680" y="280" width="120" height="40" as="geometry" />
        </mxCell>
        <mxCell id="_MjAgq_VViFwdaSgHVct-11" value="" style="edgeStyle=orthogonalEdgeStyle;rounded=0;orthogonalLoop=1;jettySize=auto;html=1;" edge="1" parent="1" source="_MjAgq_VViFwdaSgHVct-8" target="_MjAgq_VViFwdaSgHVct-10">
          <mxGeometry relative="1" as="geometry" />
        </mxCell>
        <mxCell id="_MjAgq_VViFwdaSgHVct-8" value="chunking" style="rounded=1;whiteSpace=wrap;html=1;" vertex="1" parent="1">
          <mxGeometry x="680" y="400" width="120" height="40" as="geometry" />
        </mxCell>
        <mxCell id="_MjAgq_VViFwdaSgHVct-13" value="" style="edgeStyle=orthogonalEdgeStyle;rounded=0;orthogonalLoop=1;jettySize=auto;html=1;" edge="1" parent="1" source="_MjAgq_VViFwdaSgHVct-10" target="_MjAgq_VViFwdaSgHVct-12">
          <mxGeometry relative="1" as="geometry" />
        </mxCell>
        <mxCell id="_MjAgq_VViFwdaSgHVct-10" value="embedding" style="rounded=1;whiteSpace=wrap;html=1;" vertex="1" parent="1">
          <mxGeometry x="480" y="400" width="120" height="40" as="geometry" />
        </mxCell>
        <mxCell id="_MjAgq_VViFwdaSgHVct-15" value="" style="edgeStyle=orthogonalEdgeStyle;rounded=0;orthogonalLoop=1;jettySize=auto;html=1;" edge="1" parent="1" source="_MjAgq_VViFwdaSgHVct-12" target="_MjAgq_VViFwdaSgHVct-14">
          <mxGeometry relative="1" as="geometry" />
        </mxCell>
        <mxCell id="_MjAgq_VViFwdaSgHVct-12" value="save" style="rounded=1;whiteSpace=wrap;html=1;" vertex="1" parent="1">
          <mxGeometry x="280" y="400" width="120" height="40" as="geometry" />
        </mxCell>
        <mxCell id="_MjAgq_VViFwdaSgHVct-14" value="quality check" style="rounded=1;whiteSpace=wrap;html=1;" vertex="1" parent="1">
          <mxGeometry x="80" y="400" width="120" height="40" as="geometry" />
        </mxCell>
      </root>
    </mxGraphModel>
  </diagram>
</mxfile>
